# xmcd CD database file
#
# Track frame offsets:
#	150
#	6022
#	26974
#	52756
#	65261
#	85619
#	106982
#	128167
#	147832
#	175278
#	192910
#	221885
#
# Disc length: 3099 seconds
#
# Revision: 0
# Processed by: cddbd v1.5.1PL0 Copyright (c) Steve Scherf et al.
# Submitted via: CDex 1.51
#
DISCID=a10c190c
DTITLE=ぶらは堂本舗 - BEATING SURVIVER IIDX -second raging from "beatmania"-
DYEAR=1900
DGENRE=未分類 (一般)
TTITLE0="BEATING SURVIVER" ANTHEM
TTITLE1=KAMIKAZE Wall -WACOM edit-
TTITLE2=西新宿minimalian
TTITLE3=Hold Pulz
TTITLE4=LUV WITH・・・
TTITLE5=Logical Face -DISTRUCTOR Reincarnation Style-
TTITLE6=DX7!
TTITLE7=BITTER LAB
TTITLE8=Hard Touching on TRAP-MARTIN
TTITLE9=Starmine NATION
TTITLE10=Light in my eyes
TTITLE11=dong-tepo no.1 -optimix-
EXTD=
EXTT0=
EXTT1=
EXTT2=
EXTT3=
EXTT4=
EXTT5=
EXTT6=
EXTT7=
EXTT8=
EXTT9=
EXTT10=
EXTT11=
PLAYORDER=
